<?xml version="1.0" encoding="UTF-8" standalone="no"?><!DOCTYPE svg PUBLIC "-//W3C//DTD SVG 1.1//EN" "http://www.w3.org/Graphics/SVG/1.1/DTD/svg11.dtd"><svg width="100%" height="100%" viewBox="0 0 3625 2084" version="1.1" xmlns="http://www.w3.org/2000/svg" xmlns:xlink="http://www.w3.org/1999/xlink" xml:space="preserve" xmlns:serif="http://www.serif.com/" style="fill-rule:evenodd;clip-rule:evenodd;stroke-linecap:round;stroke-linejoin:round;stroke-miterlimit:1.5;"><rect x="0" y="-0" width="3625" height="2083.33" style="fill:none;"/><g><path d="M3107.32,961.076l-51.71,-147.215l-53.82,147.215l105.53,-0Zm-83.896,-230.056l64.372,0l142.47,374.635l-74.931,0l-34.824,-93.398l-130.86,0l-34.295,93.398l-74.926,0l142.994,-374.635Z" style="fill:#f3f3f3;fill-rule:nonzero;"/><g><path d="M572.282,575.568c-27.959,-19.285 -34.989,-57.584 -15.704,-85.543c19.284,-27.958 57.583,-34.988 85.542,-15.704c27.958,19.285 34.989,57.584 15.704,85.542c-19.284,27.959 -57.584,34.989 -85.542,15.705Zm145.899,-10.073c3.823,-10.439 6.083,-21.23 6.852,-32.052l21.441,-8.568l-4.529,-24.669l-4.53,-24.669l-23.085,-0.393c-4.564,-9.842 -10.509,-19.127 -17.791,-27.528l9.095,-21.201l-20.647,-14.24l-20.647,-14.243l-16.588,16.033c-10.44,-3.823 -21.23,-6.084 -32.052,-6.853l-8.568,-21.44l-24.669,4.529l-24.669,4.529l-0.394,23.085c-9.842,4.563 -19.126,10.509 -27.527,17.791l-21.202,-9.094l-14.24,20.646l-14.242,20.647l16.033,16.589c-3.823,10.439 -6.083,21.23 -6.854,32.051l-21.439,8.568l4.528,24.669l4.529,24.669l23.085,0.394c4.564,9.842 10.509,19.126 17.792,27.527l-9.094,21.201l20.647,14.241l20.646,14.242l16.588,-16.033c10.44,3.823 21.23,6.084 32.052,6.854l8.568,21.439l24.669,-4.528l24.669,-4.53l0.393,-23.084c9.842,-4.564 19.127,-10.509 27.528,-17.792l21.201,9.094l14.241,-20.646l14.242,-20.646l-16.032,-16.589Z" style="fill:url(#_Linear1);"/><path d="M746.791,372.91c-12.939,-8.925 -16.193,-26.649 -7.268,-39.587c8.925,-12.938 26.649,-16.192 39.587,-7.267c12.939,8.925 16.192,26.647 7.267,39.586c-8.925,12.939 -26.648,16.193 -39.586,7.268Zm67.519,-4.661c1.769,-4.831 2.815,-9.825 3.171,-14.832l9.921,-3.966l-2.095,-11.417l-2.096,-11.415l-10.683,-0.183c-2.112,-4.555 -4.863,-8.851 -8.234,-12.739l4.208,-9.811l-9.554,-6.591l-9.555,-6.591l-7.676,7.42c-4.832,-1.771 -9.826,-2.816 -14.833,-3.172l-3.965,-9.921l-11.417,2.095l-11.416,2.096l-0.183,10.683c-4.554,2.113 -8.851,4.864 -12.739,8.234l-9.811,-4.209l-6.59,9.555l-6.591,9.554l7.419,7.678c-1.769,4.83 -2.814,9.824 -3.171,14.832l-9.922,3.965l2.096,11.416l2.096,11.418l10.683,0.181c2.112,4.556 4.864,8.852 8.234,12.74l-4.209,9.811l9.555,6.59l9.555,6.591l7.676,-7.419c4.832,1.769 9.826,2.814 14.833,3.171l3.966,9.921l11.416,-2.095l11.416,-2.095l0.182,-10.684c4.555,-2.112 8.851,-4.864 12.739,-8.233l9.811,4.208l6.591,-9.555l6.59,-9.554l-7.418,-7.677Z" style="fill:url(#_Linear2);"/></g><g><g><rect x="1559.6" y="910.723" width="343.271" height="17.571" style="fill:#4da8f2;fill-rule:nonzero;"/><path d="M1693.18,1042.38c-0,-0 -5.117,4.49 -9.72,11.384c-4.593,6.894 -16.797,7.27 -17.321,16.682c-0.524,9.413 16.591,9.698 25.582,6.632c8.98,-3.065 10.336,-12.261 15.771,-14.551c5.436,-2.302 8.25,-4.16 7.84,-8.649c-0.422,-4.49 -3.43,-11.772 -3.43,-11.772c0,0 -3.373,1.072 -5.356,1.299c-1.982,0.217 -8.66,0.297 -13.366,-1.025Z" style="fill:#252840;fill-rule:nonzero;"/><path d="M1754.77,787.381c-0,-0 -3.453,20.477 -6.222,34.003c-1.128,5.481 -2.142,9.823 -2.769,11.19c-0.798,1.721 -7.259,8.661 -15.178,16.808c-13.88,14.29 -32.215,32.283 -32.215,32.283l-7.167,-13.606c-0,-0 16.283,-19.098 27.326,-31.838c5.116,-5.903 9.104,-10.438 9.834,-11.088c2.313,-2.062 4.991,-22.414 8.751,-39.188c3.772,-16.762 11.316,-26.027 11.316,-26.027l6.324,27.463Z" style="fill:#ffbf55;fill-rule:nonzero;"/><path d="M1730.61,849.382c-13.88,14.29 -32.215,32.283 -32.215,32.283l-7.167,-13.606c-0,-0 16.283,-19.098 27.326,-31.838c3.395,1.652 9.606,5.618 12.056,13.161Z" style="fill:#eea886;fill-rule:nonzero;"/><path d="M1819.62,1036.78c-0,0 4.718,5.219 7.498,8.376c2.792,3.156 13.468,8.808 13.526,18.198c0.057,10.176 -7.874,9.276 -14.939,8.911c-7.065,-0.376 -12.808,-5.253 -15.782,-11.019c-2.974,-5.755 -10.883,-7.27 -11.441,-11.919c-0.559,-4.65 3.669,-13.014 3.669,-13.014l17.469,0.467Z" style="fill:#252840;fill-rule:nonzero;"/><path d="M1803.07,1027.65l-0.912,8.66c0,0 14.746,6.427 17.469,0.467l-0.627,-7.714l-15.93,-1.413Z" style="fill:#5f8cc9;fill-rule:nonzero;"/><path d="M1693.99,1036.12l-0.809,6.268c-0,-0 8.911,3.156 18.722,-0.274l0.205,-5.572l-18.118,-0.422Z" style="fill:#5f8cc9;fill-rule:nonzero;"/><path d="M1820.46,878.896c0.513,1.823 -94.364,-0 -94.364,-0c0,-0 26.243,-19.099 27.952,-24.204c1.698,-5.105 -6.688,-35.724 -7.782,-45.683c-0.878,-7.977 -3.066,-43.644 2.188,-49.091c5.492,-5.697 25.274,-11.668 25.274,-11.668l28.841,1.071c0,-0 4.752,1.003 8.159,2.575c3.396,1.584 22.859,8.512 26.016,18.232c3.156,9.721 -19.418,40.978 -19.418,40.978c0,-0 -0.045,1.401 -0.114,3.703c-0.079,3.065 -0.216,7.737 -0.33,12.797c-0.148,6.552 -0.285,13.765 -0.285,19.03c-0,12.398 3.35,30.436 3.863,32.26Z" style="fill:#ffbf55;fill-rule:nonzero;"/><path d="M1820.46,878.896c-0,-0 12.911,18.95 13.093,31.895c0.181,12.933 -4.786,48.817 -5.151,55.928c-0.364,7.099 -7.042,66.343 -7.042,66.343c0,-0 -5.173,4.797 -20.659,-1.22c-0,0 -3.419,-56.178 -3.784,-62.183c-0.364,-6.017 -0.364,-33.719 -3.829,-37.73c-3.464,-4.011 -24.419,-16.58 -27.154,-18.95c-2.735,-2.37 -50.356,8.991 -55.347,10.29c-12.922,3.35 -7.031,25.833 -4.17,35.917c4.786,16.865 8.956,77.761 8.956,77.761c0,0 -9.196,3.92 -24.613,0.604c-0,0 -30.278,-109.964 -31.246,-120.892c-0.969,-10.939 -1.447,-28.966 73.146,-42.675l87.8,4.912Z" style="fill:#323657;fill-rule:nonzero;"/><path d="M1781.63,685.599c0,-0 -25.024,-5.641 -19.315,25.855c5.721,31.508 11.738,33.981 26.848,27.463c15.098,-6.518 13.742,-26.71 14.506,-36.601c0.763,-9.903 -14.051,-16.375 -22.039,-16.717Z" style="fill:#eea886;fill-rule:nonzero;"/><path d="M1775.01,756.34c-0,0 11.087,11.749 28.613,1.071c0,0 -3.92,-25.468 -1.857,-37.877c2.062,-12.41 -22.859,19.223 -22.859,19.223c0.319,0.171 0.535,1.356 0.592,3.043c0.035,1.424 -0.034,3.213 -0.262,5.048c-0.512,4.125 -1.8,8.478 -4.227,9.492Z" style="fill:#eea886;fill-rule:nonzero;"/><path d="M1795.06,707.272c0.33,-2.769 5.823,-3.794 6.267,0.376c0.445,4.16 -2.495,11.475 -4.581,10.758c-2.085,-0.718 -2.142,-7.293 -1.686,-11.134Z" style="fill:#eea886;fill-rule:nonzero;"/><path d="M1802.45,718.474c0,-0 -0.649,-9.925 -4.273,-10.233c-3.623,-0.308 -4.182,3.692 -4.182,3.692l-3.658,0.695c0,0 1.151,-8.706 -2.461,-10.221c-3.624,-1.527 -23.463,4.786 -26.369,2.233c-2.894,-2.552 -1.538,-20.204 3.727,-22.619c5.253,-2.416 19.759,-7.829 30.402,-0.627c0,-0 8.284,-0.946 9.515,5.743c1.231,6.689 -0.444,26.369 -2.701,31.337Z" style="fill:#3a3f47;fill-rule:nonzero;"/><path d="M1779.24,746.848c18.073,-5.572 19.441,-16.466 19.452,-16.626c-5.948,10.222 -19.19,11.578 -19.19,11.578c0.035,1.424 -0.034,3.213 -0.262,5.048Z" style="fill:#a77860;fill-rule:nonzero;"/><path d="M1811.02,752.033c-0,-0 -13.242,26.357 -34.619,24.648c-21.389,-1.698 -3.647,-28.181 -2.678,-28.431c1.071,-0.262 21.924,-5.47 37.297,3.783Z" style="fill:#eea886;fill-rule:nonzero;"/><path d="M1715.24,877.562c-0,0 65.522,8.08 105.212,1.334l-75.847,-9.481c0,-0 -0.444,1.937 -29.365,8.147Z" style="fill:#ffbf55;fill-rule:nonzero;"/><path d="M1764.24,866.441l-4.877,2.461c0,0 1.105,7.76 3.783,10.108l5.481,-1.402c0,0 -1.139,-8.501 -4.387,-11.167Z" style="fill:#eea886;fill-rule:nonzero;"/><path d="M1840.07,850.556c-0.98,1.128 -13.857,6.313 -28.408,11.919c-19.885,7.658 -42.311,14.905 -42.311,14.905l-5.105,-10.939c0,-0 23.486,-12.763 39.359,-21.719c7.487,-4.228 13.287,-7.601 14.108,-8.376c2.552,-2.439 3.213,-6.336 1.333,-13.127c-1.88,-6.792 -6.199,-38.026 -6.678,-41.673c-0.49,-3.646 1.208,-13.366 10.324,-13.856c9.116,-0.479 13.754,2.085 13.754,2.085c0,0 2.279,0.957 3.989,23.064c1.698,22.118 1.937,55.05 -0.365,57.717Z" style="fill:#ffbf55;fill-rule:nonzero;"/><path d="M1817.21,814.809c-0.079,3.065 -0.216,7.737 -0.33,12.797c-8.888,-21.811 -3.761,-39.2 -3.67,-39.496c-0.957,5.914 3.932,26.403 4,26.699Z" style="fill:#b08439;fill-rule:nonzero;"/><path d="M1748.55,821.384c-1.128,5.481 -2.142,9.823 -2.769,11.19c-3.042,-14.7 -0.308,-33.525 -0.308,-33.525c0.411,8.991 3.077,22.335 3.077,22.335Z" style="fill:#b08439;fill-rule:nonzero;"/><path d="M1811.66,862.475c-19.885,7.658 -43.029,15.133 -43.029,15.133l-4.387,-11.167c0,-0 23.486,-12.763 39.359,-21.719c0,-0 5.766,2.814 8.057,17.753Z" style="fill:#eea886;fill-rule:nonzero;"/><path d="M1762.83,878.258l-93.121,-1.368l47.016,23.873l46.105,-22.505Z" style="fill:#5e5853;fill-rule:nonzero;"/><path d="M1716.73,900.763l46.105,-17.856l0,-4.649l-49.751,17.947l3.646,4.558Z" style="fill:#91887f;fill-rule:nonzero;"/><path d="M1760.41,869.073c-0,0 -5.812,-0.9 -9.835,-1.835c-3.11,-0.729 -10.848,0.274 -12.819,2.268c-1.972,1.994 -8.239,15.908 -9.424,16.762c-1.185,0.844 0.615,2.815 2.689,1.824c0,-0 1.915,6.085 6.632,3.806c4.718,-2.279 7.92,-7.248 10.393,-8.125c2.461,-0.878 16.853,-5.299 16.853,-5.299c0,0 -0.775,-10.882 -4.489,-9.401Z" style="fill:#eea886;fill-rule:nonzero;"/><path d="M1739.18,868.594c0,0 -3.737,1.801 -4.717,2.61c-0.969,0.809 -4.923,3.76 -5.88,4.455c-0.958,0.696 1.435,2.678 8.512,-0.376c7.065,-3.065 2.085,-6.689 2.085,-6.689Z" style="fill:#eea886;fill-rule:nonzero;"/><path d="M1716.73,900.763l-27.702,-75.63l-89.304,1.459l26.403,69.693l90.603,4.478Z" style="fill:#6e6760;fill-rule:nonzero;"/><path d="M1660.46,858.589c2.723,5.447 1.891,11.384 -1.846,13.253c-3.738,1.869 -8.98,-1.025 -11.703,-6.472c-2.724,-5.447 -1.903,-11.384 1.834,-13.253c3.738,-1.869 8.98,1.026 11.715,6.472Z" style="fill:#807066;fill-rule:nonzero;"/></g><path d="M1993.63,644.457l-73.546,-0l-0,64.541l11.227,-11.227l62.319,-0l0,-53.314Z" style="fill:#e6e6e6;fill-rule:nonzero;"/></g><g><rect x="1059.6" y="513.688" width="323.717" height="17.571" style="fill:#4da8f2;fill-rule:nonzero;"/><g><path d="M1309.88,604.308c-0,0 7.608,12.899 10.821,15.006c4.357,2.859 1.626,5.751 -0.443,5.754c-2.07,0.002 -12.653,0.759 -14.979,-1.886c-2.332,-2.645 -3.489,-10.572 -5.654,-12.644c-2.172,-2.074 -4.408,-10.314 1.053,-12.318c4.826,-1.77 9.202,6.088 9.202,6.088Z" style="fill:#202338;fill-rule:nonzero;"/><path d="M1306.58,598.634c-0,-0 8.713,15.106 10.217,17.338c1.497,2.231 -2.834,2.229 -5.514,1.168c-2.686,-1.059 -9.433,-11.895 -10.403,-13.868c-1.157,-2.354 -0.206,-5.052 -0.206,-5.052l5.906,0.414Z" style="fill:#c98e72;fill-rule:nonzero;"/><path d="M1297.75,606.762l2.011,15.486l1.067,0.048l-0.335,-11.141l-2.743,-4.393Z" style="fill:#202338;fill-rule:nonzero;"/><path d="M1234.41,604.308c0,0 7.615,12.899 10.828,15.006c4.356,2.859 1.625,5.751 -0.444,5.754c-2.075,0.002 -12.652,0.759 -14.978,-1.886c-2.333,-2.645 -3.489,-10.572 -5.655,-12.644c-2.172,-2.074 -4.478,-10.527 1.054,-12.318c4.852,-1.569 9.195,6.088 9.195,6.088Z" style="fill:#202338;fill-rule:nonzero;"/><path d="M1231.58,598.665c-0,0 8.257,15.075 9.76,17.307c1.497,2.231 -2.827,2.229 -5.513,1.168c-2.686,-1.059 -9.433,-11.895 -10.403,-13.868c-1.157,-2.354 -0.206,-5.052 -0.206,-5.052l6.362,0.445Z" style="fill:#de9d7d;fill-rule:nonzero;"/><path d="M1222.3,606.762l2.012,15.486l1.066,0.048l-0.334,-11.141l-2.744,-4.393Z" style="fill:#202338;fill-rule:nonzero;"/><path d="M1200.65,486.914l68.864,31.376c0,-0 7.685,2.499 8.546,11.033c2.686,26.638 22.612,68.898 22.612,68.898c6.394,3.126 5.906,0.413 5.906,0.413c-4.029,-12.933 -8.939,-66.237 -10.686,-87.666c-0.367,-4.54 -0.598,-7.648 -0.649,-8.642c-0.032,-0.677 -0.771,-1.563 -2.05,-2.596c-9.446,-7.661 -48.328,-23.524 -48.328,-23.524c-29.192,-0.74 -44.215,10.708 -44.215,10.708Z" style="fill:#c98e72;fill-rule:nonzero;"/><path d="M1187.68,500.388c2.127,18.612 28.697,16.48 28.697,16.48l32.2,0c-0,0 -8.457,18.822 -11.721,34.696c-3.463,16.848 -11.637,46.657 -11.637,46.657c0,0 0.534,1.012 6.362,0.445c-0,-0 25.272,-50.378 34.949,-63.042c2.082,-2.725 8.045,-17.52 9.073,-26.344c0.347,-2.97 0.135,-5.263 -0.977,-6.193c-1.111,-0.936 -3.681,-2.699 -7.106,-4.859c-10.082,-6.36 -27.599,-16.152 -37.359,-18.345c-13.07,-2.938 -33.742,-8.443 -33.742,-8.443c0,-0 -10.872,10.335 -8.739,28.948Z" style="fill:#de9d7d;fill-rule:nonzero;"/><path d="M1209.59,357.025c-0,-0 -4.819,-9.15 -2.468,-18.894c2.346,-9.745 11.387,-19.453 24.63,-14.994c13.237,4.458 23.936,14.741 16,26.633c-7.936,11.892 7.184,17.263 3.329,22.921c-3.849,5.659 -2.391,11.566 -0.759,12.883c1.633,1.316 6.895,6.01 6.31,11.565c-0.578,5.556 -25.683,-16.191 -25.683,-16.191c-0,-0 -13.674,-27.476 -21.359,-23.923Z" style="fill:#464240;fill-rule:nonzero;"/><path d="M1249.95,473.974c0,-0 -1.998,9.687 -53.423,-2.543c-0,-0 17.24,-5.727 53.423,2.543Z" style="fill:#eb4747;fill-rule:nonzero;"/><path d="M1195.94,474.148c-0.797,1.522 -1.593,3.045 -2.39,4.567c18.801,0.547 37.597,1.094 56.398,1.642c-2.975,-9.957 -2.011,-23.441 -1.49,-33.678c0.636,-12.499 7.543,-21.193 6.804,-33.835c3.721,0.6 4.363,0.715 8.09,1.285c-5.699,-16.231 -7.646,-24.272 -25.343,-30.519c-5.764,-2.034 -9.548,-2.437 -15.781,-1.922c-20.498,1.689 -26.673,1.931 -36.743,20.502c15.756,2.509 13.167,8.167 17.941,23.842c2.333,7.643 4.768,16.173 3.515,24.235c-1.227,7.936 -11.001,16.642 -11.001,23.881Z" style="fill:#5f8cc9;fill-rule:nonzero;"/><path d="M1228.64,387.545c-8.386,-1.585 -6.606,-6.249 -6.606,-6.249c0,-0 0.392,-2.633 0.54,-5.961c0.039,-0.852 0.064,-1.751 0.058,-2.661c0,-1.382 -0.071,-2.796 -0.231,-4.126c-0.688,-5.628 15.229,-2.27 15.229,-2.27c-0,-0 -0.919,11.391 1.272,14.804c2.198,3.415 -1.876,8.046 -10.262,6.463Z" style="fill:#eea886;fill-rule:nonzero;"/><path d="M1212.64,381.265c0,-0 16.919,19.535 23.171,24.064c0,-0 7.184,-6.494 2.757,-23.641c-0,-0 -8.167,-4.091 -25.928,-0.423Z" style="fill:#eea886;fill-rule:nonzero;"/><path d="M1213.1,334.249c0,0 -8.784,16.929 -0.07,32.964c8.713,16.036 25.837,-6.983 26.943,-9.683c1.111,-2.702 6.978,-17.977 -4.698,-22.619c-11.675,-4.641 -19.682,-5.256 -22.175,-0.662Z" style="fill:#eea886;fill-rule:nonzero;"/><path d="M1216.03,340.257c-0,-0 -6.047,7.943 -6.766,13.812c-0,0 -2.41,-11.097 4.401,-21.76c6.812,-10.663 24.116,-0.507 26.436,3.754c2.319,4.259 9.111,8.012 -2.301,26.32c0,-0 -20.53,-14.263 -21.77,-22.126Z" style="fill:#464240;fill-rule:nonzero;"/><path d="M1230.07,368.903c0,-0 -1.523,3.332 -7.486,6.432c0.039,-0.852 0.064,-1.751 0.058,-2.661c0,-0 4.035,-0.489 7.428,-3.771Z" style="fill:#a77860;fill-rule:nonzero;"/><path d="M1141.27,458.917c0,0 -4.177,1.857 -6.156,1.015c-1.979,-0.843 -5.044,-1.006 -6.008,-1.008c-1.291,-0.003 -5.34,-1.446 -5.269,0.134c0.071,1.58 6.567,2.683 7.897,3.175c1.33,0.492 -3.977,3.414 -4.472,4.712c-0.488,1.297 5.494,9.813 8.874,7.386c3.38,-2.425 5.211,-7.269 5.899,-7.577c0.687,-0.308 2.532,-1.668 2.532,-1.668l-3.297,-6.169Z" style="fill:#eea886;fill-rule:nonzero;"/><path d="M1127.9,466.191c-0,-0 -9.793,8.122 -9.947,9.218c-0.155,1.096 0.359,1.609 1.31,0.889c0.951,-0.722 9.716,-7.571 9.716,-7.571c0,0 -9.818,11.592 -10.146,12.452c-0.193,0.504 0.745,1.551 1.291,1.213c0.553,-0.338 10.988,-11.251 10.988,-11.251c0,-0 -9.143,10.84 -9.188,11.652c-0.045,0.71 1.053,1.474 1.792,0.719c0.739,-0.757 9.838,-10.32 9.838,-10.32c0,0 -6.117,8.323 -5.738,9.055c0.225,0.449 1.003,1.388 2.506,-0.811c1.51,-2.199 5.642,-6.995 5.642,-6.995l-8.064,-8.25Z" style="fill:#eea886;fill-rule:nonzero;"/><path d="M1245.22,516.869l-28.839,-0c0,-0 -26.57,2.131 -28.697,-16.481c-2.133,-18.612 8.733,-28.948 8.733,-28.948c-0,-0 14.04,3.738 26.294,6.698c6.13,-1.303 13.526,-2.152 22.162,-1.933c0,0 51.946,17.164 50.384,26.201c0,-0 -21.732,-11.618 -50.037,14.463Z" style="fill:#202338;fill-rule:nonzero;"/><path d="M1226.45,484.64l54.985,-0.81l-27.759,14.097l-27.226,-13.287Z" style="fill:#5e5853;fill-rule:nonzero;"/><path d="M1243.53,477.614c0,0 -12.369,4.791 -27.534,0.46l-0.707,-5.661l31.223,1.734l-2.982,3.467Z" style="fill:#5f8cc9;fill-rule:nonzero;"/><path d="M1253.67,497.927l-27.226,-10.545l0,-2.742l29.379,10.597l-2.153,2.69Z" style="fill:#91887f;fill-rule:nonzero;"/><path d="M1243.34,480.235c-0.148,2.031 1.902,3.496 3.778,2.696l3.194,-1.362c0.957,-0.41 1.516,-1.421 1.349,-2.454c-1.33,-8.316 -4.177,-40.691 -0.013,-46.248c1.542,-2.052 2.506,-3.852 3.046,-5.426c2.75,7.096 6.175,16.235 7.537,21.152l25.979,34.56l8.707,2.21c-10.866,-26.19 -19.598,-40.066 -19.598,-40.066c-1.703,-4.564 -6.574,-18.386 -10.892,-30.693c-2.724,-7.77 -5.23,-14.937 -6.58,-18.789c-0.681,-1.952 -2.024,-3.599 -3.797,-4.659c-4.023,-2.406 -10.731,-6.196 -16.81,-9.148c-0.026,-0.011 -0.051,-0.022 -0.071,-0.034c-0.199,-0.095 -0.392,-0.189 -0.584,-0.281c-0.007,-0.002 -0.007,-0.004 -0.013,-0.004l-0,-0.001c11.56,17.491 7.049,66.89 4.768,98.477l-0,0.07Z" style="fill:#eddad3;fill-rule:nonzero;"/><path d="M1200.42,383.18c-3.707,0.572 -12.883,9.487 -17.76,18.485c-5.571,10.269 -11.233,21.961 -15.48,25.806c-7.807,7.075 -29.661,32.076 -30.696,31.471c-0.398,-0.233 5.989,7.466 6.805,7.825c0.405,0.179 35.92,-30.594 39.326,-35.282c3.238,-4.446 11.887,-23.1 14.47,-22.69c0,0 0.007,0.006 0.013,0.014l0,0.007c0.199,0.423 3.342,7.244 6.323,17.216c0.051,0.165 0.103,0.329 0.148,0.496c2.056,6.953 1.87,14.503 0.752,22.987c-0.836,6.405 -5.616,16.872 -8.502,21.967c-0.346,0.613 -0.257,1.778 0.116,2.665l0,0.001c0.225,0.531 0.553,0.959 0.945,1.105l10.429,3.862l2.448,0.908c1.767,0.654 3.618,0.314 4.999,-0.691c1.131,-0.821 1.953,-2.092 2.153,-3.622c2.319,-17.834 5.25,-36.054 7.588,-42.918c10.256,-30.117 -4.009,-52.745 -4.009,-52.745c-0,0 -16.816,1.92 -20.068,3.133Z" style="fill:#eddad3;fill-rule:nonzero;"/><path d="M1253.67,497.927l16.354,-44.655l52.723,0.86l-15.583,41.151l-53.494,2.644Z" style="fill:#6e6760;fill-rule:nonzero;"/><path d="M1286.89,473.027c-1.606,3.217 -1.118,6.719 1.086,7.824c2.211,1.104 5.308,-0.607 6.914,-3.824c1.607,-3.217 1.125,-6.719 -1.086,-7.823c-2.21,-1.106 -5.301,0.606 -6.914,3.823Z" style="fill:#807066;fill-rule:nonzero;"/><path d="M1231.32,351.107c0,-0 3.374,5.254 0.257,9.79c-3.123,4.536 0.784,8.99 1.465,13.784c0.675,4.795 -13.025,17.552 2.211,23.971c15.235,6.418 20.087,-4.191 16.199,-10.03c-3.888,-5.839 -6.644,-10.575 -6.972,-18.9c-0.334,-8.324 -3.071,-21.301 -13.16,-18.615Z" style="fill:#464240;fill-rule:nonzero;"/></g><path d="M1403.98,313.688l-73.546,0l-0,64.541l11.227,-11.227l62.319,0l-0,-53.314Z" style="fill:#e6e6e6;fill-rule:nonzero;"/></g><g><path d="M1764.41,1401.24c11.058,20.865 3.1,46.748 -17.766,57.799c-20.865,11.058 -46.748,3.1 -57.799,-17.766c-11.058,-20.865 -3.1,-46.748 17.766,-57.799c20.865,-11.058 46.748,-3.1 57.799,17.766Z" style="fill:#f5f5f5;fill-rule:nonzero;"/><path d="M1710.36,1390.56c-16.927,8.968 -23.401,30.033 -14.432,46.961c8.962,16.927 30.033,23.401 46.961,14.439c16.927,-8.969 23.401,-30.04 14.433,-46.968c-8.963,-16.927 -30.034,-23.401 -46.962,-14.432Zm40.034,75.565c-24.742,13.106 -55.532,3.642 -68.638,-21.099c-13.106,-24.742 -3.642,-55.532 21.099,-68.638c24.742,-13.106 55.532,-3.642 68.638,21.099c13.106,24.742 3.642,55.532 -21.099,68.638Z" style="fill:#4da8f2;fill-rule:nonzero;"/><path d="M1655.62,1544.75c0,0 -57.297,46.886 -34.246,88.466c23.044,41.579 37.82,7.779 37.82,7.779c0,0 17.203,6.633 -5.251,-44.191c-10.59,-23.951 1.677,-52.054 1.677,-52.054Z" style="fill:#bbd070;fill-rule:nonzero;"/><path d="M1560.87,1482.15c-0,-0 -44.46,44.954 5.182,115.544c49.641,70.582 38.542,105.097 38.542,105.097c-0,-0 84.706,-109.908 -43.724,-220.641Z" style="fill:#97a43c;fill-rule:nonzero;"/><path d="M1620.09,1682.55c25.037,7.044 8.329,-67.318 -28.103,-92.706c-36.432,-25.395 -70.369,-30.144 -90.094,-53.449c0,0 -5.086,111.455 118.197,146.155Z" style="fill:#48753a;fill-rule:nonzero;"/><rect x="1447.64" y="1787.7" width="488.49" height="10.598" style="fill:#4da8f2;fill-rule:nonzero;"/><path d="M1935.9,1466.32l-73.546,-0l-0,64.541l11.227,-11.227l62.319,0l0,-53.314Z" style="fill:#e6e6e6;fill-rule:nonzero;"/><path d="M1775.19,1476.04c-0,0 24.865,-72.926 -22.591,-95.537c-47.456,-22.611 -87.751,10.075 -95.359,27.759c-7.615,17.683 -5.594,49.84 0.894,72.266c6.495,22.419 5.546,56.562 -8.557,67.978c-14.102,11.415 -31.587,30.377 -30.721,68.974c0.536,23.945 94.225,-61.256 94.225,-61.256l62.109,-80.184Z" style="fill:#252e3b;fill-rule:nonzero;"/><path d="M1708.51,1562.79c-0,0 -39.01,8.646 -54.494,17.697c-15.477,9.045 -49.861,50.666 -49.861,68.562c-0,17.897 150.36,34.611 150.36,34.611l28.502,104.046c-0,-0 75.998,-18.543 85.042,-33.924c9.045,-15.381 -28.865,-125.619 -35.353,-147.928c-6.618,-22.755 -33.862,-38.624 -65.524,-43.064c-31.67,-4.433 -58.672,0 -58.672,0Z" style="fill:#4ba2f4;fill-rule:nonzero;"/><path d="M1764.48,1562.43c-0,-0 -0.873,47.408 -38.473,48.816c-37.601,1.409 -29.773,-45.469 -29.773,-45.469c0,-0 27.498,-11.148 68.246,-3.347Z" style="fill:#eea886;fill-rule:nonzero;"/><path d="M1780.39,1419.37c0,-0 13.299,76.252 -24.577,131.33c-39.229,57.043 24.577,-131.33 24.577,-131.33Z" style="fill:#252e3b;fill-rule:nonzero;"/><path d="M1756.41,1528.91c0,-0 -2.611,22.68 1.753,36.775c4.364,14.11 -57.49,14.495 -57.456,2.901c0.041,-13.175 6.33,-24.178 0.406,-46.762c-5.925,-22.577 55.297,7.086 55.297,7.086Z" style="fill:#eea886;fill-rule:nonzero;"/><path d="M1708.43,1531.81c0,0 19.526,20.343 44.501,2.124c-0,-0 -2.062,13.003 -20.027,14.68c-17.959,1.677 -24.474,-16.804 -24.474,-16.804Z" style="fill:#a77860;fill-rule:nonzero;"/><path d="M1732.88,1392.93c0,-0 49.36,14.611 42.309,83.104c-7.052,68.493 -39.285,64.968 -42.309,65.476c-3.017,0.502 -41.298,3.017 -53.387,-80.08c-12.082,-83.105 53.387,-68.5 53.387,-68.5Z" style="fill:#eea886;fill-rule:nonzero;"/><path d="M1720.15,1423.48c0,-0 26.817,42.659 55.044,52.555c-0,0 15.415,-71.586 -48.247,-86.582c-63.662,-15.003 -53.689,72.301 -48.933,95.585c-0,0 13.257,-34.253 42.136,-61.558Z" style="fill:#252e3b;fill-rule:nonzero;"/><path d="M1684.17,1417.05c-0,-0 14.123,-27.34 37.957,-28.556c23.842,-1.223 38.02,19.456 38.02,19.456c0,0 -9.312,-23.284 -37.985,-23.284c-28.687,-0 -37.992,32.384 -37.992,32.384Z" style="fill:#88c0ff;fill-rule:nonzero;"/><path d="M1781.2,1632.09l16.742,155.612l-220.304,-0l-16.742,-155.612l220.304,0Z" style="fill:#254380;fill-rule:nonzero;"/><rect x="1778.68" y="1773.7" width="36.796" height="14" style="fill:#254380;fill-rule:nonzero;"/><path d="M1693.09,1707.38c1.98,9.683 -2.536,18.783 -10.082,20.322c-7.553,1.547 -15.271,-5.051 -17.25,-14.735c-1.98,-9.683 2.536,-18.776 10.082,-20.322c7.553,-1.54 15.271,5.058 17.25,14.735Z" style="fill:#3f71d9;fill-rule:nonzero;"/></g><path d="M2467.44,644.457l-170.341,-0l0,149.484l26.003,-26.003l144.338,-0l0,-123.481Z" style="fill:#e6e6e6;fill-rule:nonzero;"/><g><path d="M1268.15,793.941l-165.052,0l0,144.843l25.196,-25.196l139.856,0l0,-119.647Z" style="fill:#e6e6e6;fill-rule:nonzero;"/><g><g><path d="M598.257,1617.24l287.116,0c-0.512,-3.359 -0.996,-8.618 -1.434,-13.593c-2.766,-29.927 -4.519,-49.774 -4.519,-49.774c0,-0 -235.436,-116.729 -261.251,-39.987c-8.28,24.631 -14.153,55.434 -18.202,89.761c-0.612,5.158 -1.182,10.398 -1.71,13.593Z" style="fill:#6770b5;fill-rule:nonzero;"/><path d="M841.241,1220.48c-0,0 13.128,78.112 23.718,129.693l0,0.009c4.291,20.916 8.162,37.476 10.572,42.689c3.022,6.564 27.68,33.04 57.844,64.098c52.942,54.503 122.891,123.129 122.891,123.129l27.334,-51.901c-0,-0 -62.126,-72.835 -104.24,-121.431c-19.491,-22.495 -34.701,-39.786 -37.485,-42.278c-8.801,-7.879 -19.017,-85.497 -33.387,-149.449c-14.369,-63.946 -43.155,-99.287 -43.155,-99.287l-24.092,104.728Z" style="fill:#e8e8e8;fill-rule:nonzero;"/><path d="M933.375,1456.97c52.942,54.503 122.891,123.129 122.891,123.129l27.334,-51.901c-0,-0 -62.126,-72.835 -104.24,-121.431c-12.909,6.327 -36.609,21.427 -45.985,50.203Z" style="fill:#eea886;fill-rule:nonzero;"/><path d="M603.074,1569.98c-1.956,6.957 265.847,9.814 265.847,9.814c0,0 -11.366,-83.543 -17.857,-103.007c-6.482,-19.464 18.442,-135.81 22.614,-173.806c3.332,-30.401 11.695,-166.445 -8.345,-187.222c-20.952,-21.722 -96.389,-44.488 -96.389,-44.488l-109.982,4.083c-0,-0 -18.152,3.795 -31.128,9.819c-12.976,6.026 -87.179,32.456 -99.228,69.529c-12.049,37.073 74.042,156.267 74.042,156.267c-0,-0 0.167,5.359 0.426,14.142c0.334,11.703 0.825,29.497 1.274,48.796c0.575,24.988 1.079,52.504 1.079,72.607c0,47.272 -0.402,116.519 -2.353,123.466Z" style="fill:#e8e8e8;fill-rule:nonzero;"/><path d="M738.766,832.308c-0,-0 95.473,-21.537 73.662,98.615c-21.81,120.151 -44.767,129.594 -102.366,104.729c-57.6,-24.866 -52.441,-101.845 -55.34,-139.593c-2.9,-37.746 53.588,-62.439 84.044,-63.751Z" style="fill:#eea886;fill-rule:nonzero;"/><path d="M764.029,1102.11c-0,0 -42.282,44.827 -109.106,4.086c-0,0 14.944,-97.144 7.078,-144.462c-7.867,-47.317 87.188,73.317 87.188,73.317c-1.254,0.655 -2.079,5.171 -2.27,11.596c-0.162,5.445 0.127,12.26 0.999,19.253c1.962,15.73 6.854,32.342 16.111,36.21Z" style="fill:#eea886;fill-rule:nonzero;"/><path d="M687.562,914.988c-1.259,-10.6 -22.209,-14.485 -23.897,1.407c-1.687,15.893 9.522,43.785 17.473,41.041c7.951,-2.744 8.159,-27.832 6.424,-42.448Z" style="fill:#eea886;fill-rule:nonzero;"/><path d="M659.373,957.712c0,0 2.463,-37.855 16.291,-39.037c13.827,-1.181 15.954,14.064 15.954,14.064l13.963,2.635c0,0 -4.411,-33.18 9.394,-38.977c13.806,-5.796 89.456,18.266 100.539,8.528c11.083,-9.738 5.86,-77.043 -14.178,-86.254c-20.044,-9.21 -75.397,-29.851 -115.955,-2.398c0,-0 -31.613,-3.606 -36.302,21.907c-4.689,25.512 1.7,100.562 10.294,119.532Z" style="fill:#3a3f47;fill-rule:nonzero;"/><path d="M747.918,1065.9c-68.941,-21.259 -74.134,-62.769 -74.208,-63.416c22.701,39.008 73.209,44.163 73.209,44.163c-0.162,5.445 0.127,12.26 0.999,19.253Z" style="fill:#a77860;fill-rule:nonzero;"/><path d="M626.703,1085.69c-0,-0 50.485,100.501 132.046,94.01c81.561,-6.482 13.901,-107.5 10.195,-108.435c-4.074,-1.028 -83.647,-20.853 -142.241,14.425Z" style="fill:#eea886;fill-rule:nonzero;"/><path d="M515.919,1461.46c3.721,4.309 52.853,24.065 108.352,45.446l0.004,0.009c75.819,29.205 161.347,56.831 161.347,56.831l19.466,-41.731c0,0 -89.561,-48.669 -150.084,-82.804c-28.588,-16.113 -50.693,-28.995 -53.816,-31.971c-9.732,-9.266 -12.254,-24.129 -5.098,-50.048c7.156,-25.918 23.634,-145.048 25.487,-158.952c1.855,-13.904 -4.633,-50.977 -39.389,-52.83c-34.756,-1.854 -52.445,7.957 -52.445,7.957c0,-0 -8.726,3.629 -15.214,87.973c-6.488,84.338 -7.415,209.922 1.39,220.12Z" style="fill:#e8e8e8;fill-rule:nonzero;"/><path d="M603.074,1325.11c0.334,11.703 0.825,29.497 1.274,48.796c33.923,-83.151 14.324,-149.503 13.991,-150.617c3.67,22.559 -15.001,100.707 -15.265,101.821Z" style="fill:#c4c4c4;fill-rule:nonzero;"/><path d="M864.959,1350.18l0,0.009c4.291,20.916 8.162,37.476 10.572,42.689c11.585,-56.073 1.159,-127.857 1.159,-127.857c-1.579,34.29 -11.731,85.159 -11.731,85.159Z" style="fill:#c4c4c4;fill-rule:nonzero;"/><path d="M624.271,1506.91l0.004,0.009c75.819,29.205 182.749,53.617 182.749,53.617l15.145,-36.426c-0,-0 -106.642,-50.76 -167.165,-84.895c-0,0 -22.017,10.727 -30.733,67.695Z" style="fill:#eea886;fill-rule:nonzero;"/><path d="M822.169,1524.11c-0,-0 22.194,-3.451 37.532,-7.021c11.868,-2.766 41.374,1.041 48.888,8.655c7.513,7.614 31.414,60.684 35.933,63.924c4.528,3.232 -2.31,10.728 -10.252,6.966c-0,0 -6.016,10.472 -24.011,1.78c-17.985,-8.691 -31.469,-14.926 -40.89,-18.268c-9.422,-3.341 -64.281,-20.203 -64.281,-20.203c0,0 2.949,-41.484 17.081,-35.833Z" style="fill:#eea886;fill-rule:nonzero;"/><path d="M900.683,1530.25c-0,0 14.251,6.884 17.966,9.951c3.725,3.068 18.807,14.352 22.459,17.008c3.652,2.657 -5.505,10.207 -32.474,-1.47c-26.959,-11.676 -7.951,-25.489 -7.951,-25.489Z" style="fill:#eea886;fill-rule:nonzero;"/><path d="M901.924,1374.27l-24.841,230.956l326.962,-0l24.841,-230.956l-326.962,-0Z" style="fill:#254380;fill-rule:nonzero;"/><rect x="851.064" y="1584.45" width="54.612" height="20.779" style="fill:#254380;fill-rule:nonzero;"/><path d="M1034.83,1486.04c-2.63,12.864 3.368,24.942 13.402,26.996c10.024,2.045 20.285,-6.719 22.914,-19.574c2.621,-12.863 -3.377,-24.95 -13.402,-26.995c-10.024,-2.045 -20.285,6.71 -22.914,19.573Z" style="fill:#3f71d9;fill-rule:nonzero;"/></g><rect x="501.262" y="1598.97" width="818.757" height="18.269" style="fill:#4da8f2;fill-rule:nonzero;"/></g></g><path d="M2432.29,731.02l-37.701,-32.869c-3.091,-2.696 -3.411,-7.388 -0.719,-10.479c2.693,-3.091 7.391,-3.412 10.482,-0.718l26.658,23.244l38.022,-42.407c2.739,-3.055 7.437,-3.312 10.489,-0.573c3.051,2.738 3.309,7.433 0.569,10.488l-47.8,53.314Z" style="fill:url(#_Linear3);"/><g><path d="M2936.97,1328.52c4.655,-62.992 23.658,-171.203 25.767,-178.865c0.058,0 8.911,8.433 8.969,8.433c0,-0.039 2.919,0.41 2.958,0.371c0.039,-0.117 2.693,1.015 2.693,1.015c0,-0 57.361,80.131 57.986,123.203c0.312,20.545 -44.497,35.263 -98.373,45.843Zm-375.611,-38.279c5.309,22.995 4.392,76.422 4.392,76.422c1.435,50.675 -4.217,102.716 -5.651,131.782c-0.049,0.898 -0.098,1.796 -0.137,2.704c-0.371,6.861 -0.82,14.132 -1.327,21.501l379.095,0c-0.137,-6.978 -0.273,-14.172 -0.39,-21.501c-0.762,-42.896 -1.445,-89.892 -1.503,-123.428c86.641,-22.887 180.192,-52.744 178.445,-74.577c-1.796,-22.468 -69.297,-353.348 -88.164,-366.856c-12.864,-9.243 -93.649,-41.618 -135.559,-57.517c-19.374,-7.389 -34.141,-12.532 -37.167,-12.708c-9.584,-0.605 -127.761,10.717 -127.761,10.717c0,-0 -16.953,5.807 -34.268,13.762c-29.563,13.566 -75.641,34.765 -108.718,50.518c-10.678,5.066 -24.03,11.947 -35.137,17.832c1.337,40.154 3.719,83.206 7.125,129.245c0,-0 6.139,100.559 6.725,202.104Z" style="fill:#dbd8e3;fill-rule:nonzero;"/><path d="M2544.56,1522.65l49.66,0c1.133,-6.998 2.362,-14.172 3.651,-21.501c8.413,-47.415 19.491,-100.999 25.396,-153.606l-0,-0.02c10.912,-97.475 25.942,-192.978 34.053,-249.714c21.101,-147.72 49.25,-213.816 49.25,-213.816c-13.45,4.011 -161.834,74.138 -161.834,74.138c1.328,40.837 3.309,84.65 6.784,131.528c-0,0 3.269,114.526 9.857,223.157c2.245,15.548 3.377,31.457 2.128,47.727c-1.659,21.248 -3.953,44.438 -6.725,68.624c-0.039,0.332 -0.058,0.644 -0.097,0.918c-0.664,5.748 -1.367,11.526 -2.05,17.373c0,0.097 -0.039,0.156 -0.039,0.254c-2.118,17.558 -4.48,35.488 -6.979,53.437c-0.985,7.173 -2,14.347 -3.055,21.501Z" style="fill:#323657;fill-rule:nonzero;"/><path d="M2956.64,1273.07c5.963,-48.108 12.727,-96.499 17.617,-113.443c-0,-0 16.709,33.702 15.401,83.127c-0.254,9.985 -12.961,20.214 -33.018,30.316Zm-270.045,86.163c11.283,26.625 50.167,92.37 50.167,92.37c0,-0 28.148,-6.901 69.541,-17.617c2.733,23.483 5.486,45.59 8.111,67.16c0.879,7.212 1.757,14.367 2.596,21.501l147.682,0c-1.757,-7.232 -3.436,-14.406 -5.007,-21.501c-9.028,-39.988 -15.363,-77.203 -16.28,-104.356c99.036,-28.276 196.101,-59.967 194.598,-75.134c-2.245,-22.429 -76.617,-369.316 -95.484,-382.824c-10.872,-7.808 -91.609,-36.425 -131.216,-52.041c-7.232,-2.86 -31.945,-12.142 -38.435,-14.611c-8.404,9.35 -66.311,73.26 -86.768,314.717c-2.538,30.032 2.723,84.845 8.569,139.766c-59.957,16.006 -110.007,28.031 -108.074,32.57Z" style="fill:#323657;fill-rule:nonzero;"/><path d="M2859.59,869.841c0,0 -15.031,-28.402 -10.873,-109.031c1.152,-22.341 -117.337,52.979 -117.337,52.979c0,-0 0.41,7.7 0.664,18.085c0.137,4.324 0.215,9.067 0.215,13.938c-0,1.347 -0.02,2.684 -0.02,4.031c-0.019,2.205 -0.039,4.382 -0.078,6.568c-0.059,2.714 -0.156,5.359 -0.293,7.916c-0.136,2.899 -0.332,5.651 -0.605,8.169c-0.488,4.87 -3.348,13.469 -4.382,15.821c-5.437,12.532 88.349,13.255 132.709,-18.476Z" style="fill:#eea987;fill-rule:nonzero;"/><path d="M2294.69,1399.98c0,-0 72.012,-69.844 119.251,-81.469c21.834,-5.368 50.597,-35.507 77.925,-70.947c9.009,-11.673 17.842,-23.922 26.245,-36.044c0.03,-0.019 0.03,-0.049 0.03,-0.049c33.526,-48.41 59.8,-94.81 59.8,-94.81c0,-0 99.115,-116.156 19.579,-167.924c0,-0 -34.082,-0.742 -52.783,9.409c-19.218,10.443 -60.23,96.02 -67.179,111.178c-6.949,15.138 -82.269,155.899 -87.315,159.062c-5.046,3.162 -13.44,14.738 -43.579,30.959c-36.893,19.872 -94.857,78.013 -94.857,78.013l42.883,62.622Z" style="fill:#323657;fill-rule:nonzero;"/><path d="M2640.39,1480.8c0,-0 10.053,-0.401 14.367,-2.723c0,-0 7.525,-4.832 13.079,-7.936c1.766,-0.985 3.328,-1.795 4.392,-2.215c4.441,-1.767 14.718,-4.304 24.195,-11.537c9.468,-7.212 40.339,-36.093 40.339,-36.093l-19.95,-30.676l-9.213,-30.374c-0,0 -71.982,7.154 -81.586,12.864c-0.927,0.566 -1.835,1.152 -2.635,1.777c-7.671,5.612 -11.01,13.02 -14.689,16.416c-1.347,1.269 -13.889,14.679 -13.186,20.126c0.966,7.554 4.704,12.405 9.389,14.699c0,-0 2.538,14.708 10.141,21.286c0,0 1.903,13.645 13.694,19.13c-0,0 3.484,13.626 11.663,15.256Z" style="fill:#efaa88;fill-rule:nonzero;"/><path d="M2754.99,552.78c0,-0 -130.103,-31.362 -102.697,133.353c27.407,164.715 58.61,178.086 137.863,145.243c79.253,-32.843 73.748,-138.193 78.472,-189.745c4.714,-51.552 -72.02,-86.447 -113.638,-88.851Z" style="fill:#eea886;fill-rule:nonzero;"/><path d="M2823.34,666.852c1.932,-14.467 30.656,-19.36 32.648,2.403c1.991,21.763 -13.899,59.678 -24.713,55.763c-10.815,-3.911 -10.6,-38.217 -7.935,-58.166Z" style="fill:#eea886;fill-rule:nonzero;"/><path d="M2861.03,725.833c-0,-0 -2.606,-51.807 -21.492,-53.702c-18.876,-1.892 -22.088,18.91 -22.088,18.91l-19.149,3.323c0,-0 6.696,-45.278 -12.064,-53.48c-18.759,-8.203 -122.666,23.178 -137.628,9.641c-14.953,-13.536 -6.471,-105.456 21.111,-117.646c27.592,-12.191 103.693,-39.301 158.594,-0.954c-0,0 43.296,-4.293 49.191,30.682c5.895,34.977 -4.343,137.461 -16.475,163.226Z" style="fill:#16202e;fill-rule:nonzero;"/><path d="M2683.04,1359.25l53.72,92.351c0,0 142.313,-36.659 175.508,-46.029l-75.896,-90.34c0,-0 -111.91,25.572 -153.332,44.018Z" style="fill:#323657;fill-rule:nonzero;"/><path d="M2731.87,864.327l0.02,-0c69.775,-7.115 96.831,-60.835 96.831,-60.835c-43.892,43.51 -96.46,42.32 -96.46,42.32c-0,1.347 -0.02,2.684 -0.02,4.031c-0.019,2.205 -0.039,4.382 -0.078,6.568c-0.059,2.714 -0.156,5.359 -0.293,7.916Z" style="fill:#a77860;fill-rule:nonzero;"/><path d="M2630.12,1157.05l37.948,352.84l-499.515,-0l-37.951,-352.84l499.518,-0Z" style="fill:#ffc955;fill-rule:nonzero;"/><rect x="2624.39" y="1478.13" width="83.43" height="31.75" style="fill:#ffc955;fill-rule:nonzero;"/><rect x="2013.76" y="1509.15" width="1043.37" height="21.502" style="fill:url(#_Linear4);"/><path d="M2427.07,1327.8c4.022,19.647 -5.143,38.104 -20.467,41.237c-15.313,3.133 -30.988,-10.258 -35.009,-29.905c-4.012,-19.648 5.153,-38.104 20.476,-41.237c15.314,-3.133 30.989,10.258 35,29.905Z" style="fill:#cfa345;fill-rule:nonzero;"/></g><g><path d="M1942.17,498.813l205.327,0l0,-143.126l-205.327,0l-0,143.126Zm211.357,6.034l-217.394,-0l-0,-155.193l217.394,0l-0,155.193Z" style="fill:url(#_Linear5);"/><path d="M2044.83,443.654l-107.596,-88.655l3.834,-4.657l103.762,85.494l103.761,-85.494l3.834,4.657l-107.595,88.655Z" style="fill:url(#_Linear6);"/><path d="M2148.33,503.905l-78.026,-82.264l4.378,-4.151l78.026,82.265l-4.378,4.15Z" style="fill:url(#_Linear7);"/><path d="M1941.34,503.905l-4.377,-4.15l78.026,-82.265l4.377,4.151l-78.026,82.264Z" style="fill:url(#_Linear8);"/></g><g><path d="M704.189,658.226l203.204,-0l-0,-157.414l-203.204,0l-0,157.414Zm210.301,7.095l-217.395,-0l0,-171.603l217.395,0l-0,171.603Z" style="fill:url(#_Linear9);"/><path d="M908.696,626.739l-38.635,-31.553l-46.876,29.488l-52.15,-48.369l-68.716,36.867l-3.354,-6.251l73.18,-39.262l51.872,48.111l46.583,-29.304l42.586,34.778l-4.49,5.495Z" style="fill:url(#_Linear10);"/><path d="M856.184,517.866c-12.175,0 -22.078,9.905 -22.078,22.081c0,12.175 9.903,22.08 22.078,22.08c12.176,0 22.083,-9.905 22.083,-22.08c0,-12.176 -9.907,-22.081 -22.083,-22.081Zm0,51.256c-16.085,-0 -29.175,-13.088 -29.175,-29.175c0,-16.087 13.09,-29.175 29.175,-29.175c16.091,-0 29.176,13.088 29.176,29.175c-0,16.087 -13.085,29.175 -29.176,29.175Z" style="fill:url(#_Linear11);"/></g><g><path d="M1466.28,1284.18l-202.521,-113.261l69.615,-4.594l132.906,117.855Z" style="fill:#d6d6d6;fill-rule:nonzero;"/><path d="M1466.28,1284.18l-62.321,-100.239l-52.297,-1.387l114.618,101.626Z" style="fill:#e8e8e8;fill-rule:nonzero;"/><path d="M1310.33,1196.96l-4.057,25.522l160.009,61.695l-155.952,-87.217Z" style="fill:#c2c2c2;fill-rule:nonzero;"/></g><g><path d="M2052.27,1005.32l119.826,-67.013l-41.189,-2.719l-78.637,69.732Z" style="fill:#d6d6d6;fill-rule:nonzero;"/><path d="M2052.27,1005.32l36.874,-59.309l30.943,-0.82l-67.817,60.129Z" style="fill:#e8e8e8;fill-rule:nonzero;"/><path d="M2144.54,953.72l2.4,15.101l-94.673,36.503l92.273,-51.604Z" style="fill:#c2c2c2;fill-rule:nonzero;"/></g><g><path d="M1553.47,471.941l110.297,14.006l-25.522,-21.589l-84.775,7.583Z" style="fill:#d6d6d6;fill-rule:nonzero;"/><path d="M1553.47,471.941l52.556,-20.889l20.551,14.354l-73.107,6.535Z" style="fill:#e8e8e8;fill-rule:nonzero;"/><path d="M1638.4,482.727l-5.702,10.991l-79.232,-21.777l84.934,10.786Z" style="fill:#c2c2c2;fill-rule:nonzero;"/></g><path d="M2413.76,970.458c-0,-0 -7.66,-98.927 -95.833,-99.625c-88.174,-0.698 -145.834,45.834 -145.834,45.834" style="fill:none;stroke:#c1c1c1;stroke-width:4.17px;stroke-dasharray:20.83,20.83,0,0;"/><path d="M1776.26,637.5c-0,0 38.928,-168.648 -20.833,-143.782c-59.762,24.866 -57.634,91.053 -12.5,59.086c45.133,-31.967 -29.945,-120.026 -79.167,-86.137" style="fill:none;stroke:#c1c1c1;stroke-width:4.17px;stroke-dasharray:20.83,20.83,0,0;"/><path d="M938.762,1005.32c-0,-0 170.767,10.194 220.833,36.343c50.066,26.148 116.667,87.5 116.667,87.5" style="fill:none;stroke:#c1c1c1;stroke-width:4.17px;stroke-dasharray:20.83,20.83,0,0;"/></g><defs><linearGradient id="_Linear1" x1="0" y1="0" x2="1" y2="0" gradientUnits="userSpaceOnUse" gradientTransform="matrix(268.458,827.203,-827.203,268.458,533.153,296.776)"><stop offset="0" style="stop-color:#3fd4e6;stop-opacity:1"/><stop offset="1" style="stop-color:#5477ff;stop-opacity:1"/></linearGradient><linearGradient id="_Linear2" x1="0" y1="0" x2="1" y2="0" gradientUnits="userSpaceOnUse" gradientTransform="matrix(268.459,827.203,-827.203,268.459,725.578,234.327)"><stop offset="0" style="stop-color:#3fd4e6;stop-opacity:1"/><stop offset="1" style="stop-color:#5477ff;stop-opacity:1"/></linearGradient><linearGradient id="_Linear3" x1="0" y1="0" x2="1" y2="0" gradientUnits="userSpaceOnUse" gradientTransform="matrix(16.7148,51.5034,-51.5034,16.7148,2434.06,673.521)"><stop offset="0" style="stop-color:#3fd4e6;stop-opacity:1"/><stop offset="1" style="stop-color:#5477ff;stop-opacity:1"/></linearGradient><linearGradient id="_Linear4" x1="0" y1="0" x2="1" y2="0" gradientUnits="userSpaceOnUse" gradientTransform="matrix(1333.32,0,0,1734.94,1533.81,1519.9)"><stop offset="0" style="stop-color:#ffbf5b;stop-opacity:1"/><stop offset="1" style="stop-color:#ff3856;stop-opacity:1"/></linearGradient><linearGradient id="_Linear5" x1="0" y1="0" x2="1" y2="0" gradientUnits="userSpaceOnUse" gradientTransform="matrix(-91.2287,-359.121,359.121,-91.2287,2097.48,634.473)"><stop offset="0" style="stop-color:#ff9e54;stop-opacity:1"/><stop offset="1" style="stop-color:#ffd154;stop-opacity:1"/></linearGradient><linearGradient id="_Linear6" x1="0" y1="0" x2="1" y2="0" gradientUnits="userSpaceOnUse" gradientTransform="matrix(-91.2287,-359.121,359.121,-91.2287,2114.71,630.094)"><stop offset="0" style="stop-color:#ff9e54;stop-opacity:1"/><stop offset="1" style="stop-color:#ffd154;stop-opacity:1"/></linearGradient><linearGradient id="_Linear7" x1="0" y1="0" x2="1" y2="0" gradientUnits="userSpaceOnUse" gradientTransform="matrix(-91.2273,-359.118,359.118,-91.2273,2152.12,620.59)"><stop offset="0" style="stop-color:#ff9e54;stop-opacity:1"/><stop offset="1" style="stop-color:#ffd154;stop-opacity:1"/></linearGradient><linearGradient id="_Linear8" x1="0" y1="0" x2="1" y2="0" gradientUnits="userSpaceOnUse" gradientTransform="matrix(-91.228,-359.119,359.119,-91.228,2026.87,652.409)"><stop offset="0" style="stop-color:#ff9e54;stop-opacity:1"/><stop offset="1" style="stop-color:#ffd154;stop-opacity:1"/></linearGradient><linearGradient id="_Linear9" x1="0" y1="0" x2="1" y2="0" gradientUnits="userSpaceOnUse" gradientTransform="matrix(-158.147,-258.786,258.786,-158.147,898.929,731.923)"><stop offset="0" style="stop-color:#ff9e54;stop-opacity:1"/><stop offset="1" style="stop-color:#ffd154;stop-opacity:1"/></linearGradient><linearGradient id="_Linear10" x1="0" y1="0" x2="1" y2="0" gradientUnits="userSpaceOnUse" gradientTransform="matrix(-158.147,-258.787,258.787,-158.147,883.585,741.3)"><stop offset="0" style="stop-color:#ff9e54;stop-opacity:1"/><stop offset="1" style="stop-color:#ffd154;stop-opacity:1"/></linearGradient><linearGradient id="_Linear11" x1="0" y1="0" x2="1" y2="0" gradientUnits="userSpaceOnUse" gradientTransform="matrix(-158.147,-258.786,258.786,-158.147,953.224,698.741)"><stop offset="0" style="stop-color:#ff9e54;stop-opacity:1"/><stop offset="1" style="stop-color:#ffd154;stop-opacity:1"/></linearGradient></defs></svg>